Coordinates
version=1
nRows=9
nColumns=36
inDegrees=yes

Units are S.I. units (second, meters, Newtons, ...)
If the header above contains a line with 'inDegrees', this indicates whether rotational values are in degrees (yes) or radians (no).

endheader
time	pelvis_tilt	pelvis_list	pelvis_rotation	pelvis_tx	pelvis_ty	pelvis_tz	hip_flexion_r	hip_adduction_r	hip_rotation_r	knee_angle_r	knee_angle_r_beta	ankle_angle_r	subtalar_angle_r	mtp_angle_r	hip_flexion_l	hip_adduction_l	hip_rotation_l	knee_angle_l	knee_angle_l_beta	ankle_angle_l	subtalar_angle_l	mtp_angle_l	lumbar_extension	lumbar_bending	lumbar_rotation	arm_flex_r	arm_add_r	arm_rot_r	elbow_flex_r	pro_sup_r	arm_flex_l	arm_add_l	arm_rot_l	elbow_flex_l	pro_sup_l
      3.90000000	     -5.82856809	     -0.37364635	      1.24863252	      0.33977899	      0.95991261	     -0.08099236	      1.46798456	     -3.57472359	     -5.39618449	      3.31081134	      0.05778456	      1.34609995	    -11.75237328	     -7.49999987	      1.28185594	     -4.29238981	     -3.80001055	      0.89778766	      0.01566935	      0.78218522	     -3.04093705	     -7.49999987	      8.27553728	      1.81557884	     10.72379850	   -181.21291553	     -0.82290465	   -272.84681197	      6.70354551	     58.43447427	     74.07390583	    -47.82313771	     20.34556296	      4.32404975	     59.52184170
      3.91666670	     -5.83639541	     -0.38905869	      1.18149867	      0.33982504	      0.95975210	     -0.08090484	      1.44558992	     -3.54934152	     -5.37647779	      3.24205852	      0.05658460	      1.19199414	    -11.76647431	     -7.49999987	      1.27018206	     -4.31313548	     -4.00513304	      0.90320988	      0.01576399	      0.77739370	     -2.83330381	     -7.49999987	      8.28936439	      1.79657651	     11.12449021	   -181.12860643	     -0.96523445	   -278.12099319	      6.98666917	     67.72667958	     74.60770475	    -47.18621826	     24.21424518	      3.27288091	     55.47150027
      3.93333330	     -5.81757771	     -0.40247359	      1.15410942	      0.33982781	      0.95986151	     -0.08098908	      1.40886388	     -3.53264726	     -5.38559972	      3.21821635	      0.05616847	      1.06904669	    -11.81722886	     -7.49999987	      1.21205674	     -4.31189358	     -3.94017285	      0.89673880	      0.01565104	      0.69210969	     -2.89238797	     -7.49999987	      8.22095676	      1.83663691	     11.04126623	   -181.06628440	     -0.88919458	   -278.14013029	      6.91022692	     67.41688774	     74.40244402	    -47.47767532	     23.68013400	      3.28311610	     55.37600156
      3.95000000	     -5.79900046	     -0.40342847	      1.08687876	      0.33975233	      0.95968783	     -0.08098855	      1.39940050	     -3.52798281	     -5.34524798	      3.20356433	      0.05591275	      0.95063030	    -11.85434629	     -7.49999987	      1.14534754	     -4.28556201	     -3.81138476	      0.89155993	      0.01556066	      0.55469192	     -3.15646877	     -7.49999987	      8.08894653	      1.88709906	     11.27235872	   -180.38069060	     -0.75769065	   -268.53813914	      5.81228326	     62.42509457	     74.01163544	    -47.37377267	     18.01555406	      4.35787875	     57.10380482
      3.96666670	     -5.53245345	     -0.42091221	      1.05717179	      0.33968105	      0.96018927	     -0.08100785	      1.06142924	     -3.49323850	     -5.35063317	      3.07913627	      0.05374107	      0.84014237	    -11.92909371	     -7.49999987	      0.81528996	     -4.30856463	     -4.00026512	      0.84550073	      0.01475677	      0.84092260	     -2.74219072	     -7.49999987	      7.49901996	      2.01208539	     11.37577047	   -179.74125444	     -0.69244237	   -267.72646479	      6.20005684	     60.77790217	     73.29763767	    -47.73936654	     14.50483666	      6.18398816	     57.72173326
      3.98333330	     -5.92332729	     -0.41655857	      0.99664516	      0.33560222	      0.95670174	     -0.08517750	      1.56639768	     -3.55813524	     -5.29901471	      3.12748244	      0.05458487	      0.73818722	    -12.14965959	     -7.49999987	      1.32241994	     -4.21577767	     -3.90714522	      0.87167573	      0.01521361	      0.65570614	     -3.09171136	     -7.49999987	      8.22473454	      1.92481695	     11.70697792	   -180.75093197	     -1.55623484	   -276.09202908	      7.14829606	     59.30130586	     75.10958597	    -46.86680690	     20.92504898	      3.35308849	     59.73129222
      4.00000000	     -5.91441212	     -0.37636145	      1.01146898	      0.33573785	      0.95726366	     -0.08515465	      1.67046094	     -3.66026620	     -5.26319340	      3.26912751	      0.05705704	      0.68674875	    -12.47354779	     -7.49999987	      1.35154556	     -4.10321515	     -3.52583197	      0.92400600	      0.01612695	      0.64881439	     -3.27604334	     -7.49999987	      8.17347151	      1.86263463	     11.90093270	   -180.97441042	     -2.03226382	   -281.41025825	      8.23726004	     68.35146949	     75.80293816	    -46.42609523	     25.99583961	      2.60033340	     52.86989970
      4.01666670	     -5.92568451	     -0.35534298	      0.97733592	      0.33594633	      0.95750291	     -0.08501362	      1.81818236	     -3.73170614	     -5.23229012	      3.46013877	      0.06039081	      0.67335757	    -12.66054836	     -7.49999987	      1.37977229	     -4.02490667	     -3.22004280	      0.97816000	      0.01707211	      0.69083922	     -3.35385439	     -7.49999987	      8.07171546	      1.98159879	     11.88605873	   -180.81117192	     -1.83077288	   -277.26684442	      8.09464975	     65.28602751	     75.32023783	    -46.58863296	     21.66219272	      3.50690814	     54.53415546
      4.03333330	     -5.88973304	     -0.30591831	      0.96169158	      0.33605237	      0.95809393	     -0.08492369	      1.88150649	     -3.82392309	     -5.13908763	      3.61492187	      0.06309229	      0.63376458	    -12.85216880	     -7.49999987	      1.37032502	     -3.91471688	     -2.90753872	      1.02752652	      0.01793372	      0.68516238	     -3.55418619	     -7.49999987	      7.99688398	      2.01553682	     11.64659763	   -181.40713133	     -1.99035091	   -283.59956625	      8.94047219	     70.03363717	     75.09712291	    -47.00815508	     22.87222741	      3.47267864	     55.07344063
